# xmcd
#
# Track frame offsets:
#	225
#	13167
#	37752
#	50208
#	61500
#	74226
#	93580
#	105293
#	122278
#	138401
#
# Disc length: 2130 seconds
#
# Revision: 1
# Processed by: cddbd v1.5.2PL0 Copyright (c) Steve Scherf et al.
# Submitted via: audiograbber 1.83.01
#
DISCID=83084f0a
DTITLE=Harrison, Wilbert - Let's Work Together
DYEAR=1969
DGENRE=Blues
TTITLE0=Louie Louie
TTITLE1=Let's Work Together
TTITLE2=Kansas City
TTITLE3=Tropical Shakedown
TTITLE4=Blue Monday
TTITLE5=Forgive Me
TTITLE6=Soul Rattler
TTITLE7=What Am I Living For
TTITLE8=Stagger Lee
TTITLE9=Stand By Me
EXTD=
EXTT0=
EXTT1=
EXTT2=
EXTT3=
EXTT4=
EXTT5=
EXTT6=
EXTT7=
EXTT8=
EXTT9=
PLAYORDER=
